<svg width="1440" id="footer" height="265" viewBox="0 0 1440 265" fill="none" xmlns="http://www.w3.org/2000/svg">
<path d="M0 40C0 17.9086 17.9086 0 40 0H1400C1422.09 0 1440 17.9086 1440 40V265H0V40Z" fill="black"/>
<path d="M643.095 50.7524C641.134 50.7524 639.584 51.4076 638.444 52.7178C637.313 54.0199 636.748 55.8062 636.748 58.0767C636.748 60.4123 637.293 62.2189 638.383 63.4966C639.482 64.7661 641.044 65.4009 643.071 65.4009C644.316 65.4009 645.736 65.1771 647.331 64.7295V66.5483C646.094 67.0122 644.568 67.2441 642.753 67.2441C640.125 67.2441 638.094 66.4466 636.662 64.8516C635.238 63.2565 634.526 60.9901 634.526 58.0522C634.526 56.2131 634.868 54.6017 635.551 53.2183C636.243 51.8348 637.236 50.7687 638.53 50.02C639.832 49.2713 641.362 48.897 643.12 48.897C644.991 48.897 646.627 49.2388 648.027 49.9224L647.148 51.7046C645.797 51.0698 644.446 50.7524 643.095 50.7524ZM663.093 60.2983C663.093 62.4793 662.543 64.1842 661.445 65.4131C660.346 66.6338 658.828 67.2441 656.892 67.2441C655.695 67.2441 654.633 66.9634 653.706 66.4019C652.778 65.8403 652.062 65.0347 651.557 63.9849C651.053 62.9351 650.8 61.7062 650.8 60.2983C650.8 58.1174 651.346 56.4206 652.436 55.208C653.527 53.9873 655.04 53.377 656.977 53.377C658.849 53.377 660.334 53.9995 661.433 55.2446C662.539 56.4897 663.093 58.1743 663.093 60.2983ZM652.9 60.2983C652.9 62.0073 653.242 63.3094 653.925 64.2046C654.609 65.0998 655.614 65.5474 656.94 65.5474C658.267 65.5474 659.272 65.1038 659.956 64.2168C660.647 63.3216 660.993 62.0155 660.993 60.2983C660.993 58.5975 660.647 57.3076 659.956 56.4287C659.272 55.5417 658.259 55.0981 656.916 55.0981C655.59 55.0981 654.589 55.5335 653.913 56.4043C653.238 57.2751 652.9 58.5731 652.9 60.2983ZM676.438 67V58.3452C676.438 57.2547 676.189 56.4409 675.693 55.9038C675.196 55.3667 674.419 55.0981 673.361 55.0981C671.962 55.0981 670.936 55.4766 670.285 56.2334C669.634 56.9902 669.309 58.2394 669.309 59.981V67H667.282V53.6211H668.93L669.26 55.4521H669.357C669.772 54.793 670.354 54.2843 671.103 53.9263C671.852 53.5601 672.686 53.377 673.605 53.377C675.217 53.377 676.429 53.7676 677.243 54.5488C678.057 55.3219 678.464 56.563 678.464 58.272V67H676.438ZM692.419 67V58.3452C692.419 57.2547 692.171 56.4409 691.674 55.9038C691.178 55.3667 690.401 55.0981 689.343 55.0981C687.943 55.0981 686.918 55.4766 686.267 56.2334C685.616 56.9902 685.29 58.2394 685.29 59.981V67H683.264V53.6211H684.912L685.241 55.4521H685.339C685.754 54.793 686.336 54.2843 687.084 53.9263C687.833 53.5601 688.667 53.377 689.587 53.377C691.198 53.377 692.411 53.7676 693.225 54.5488C694.038 55.3219 694.445 56.563 694.445 58.272V67H692.419ZM704.897 67.2441C702.919 67.2441 701.357 66.6419 700.209 65.4375C699.07 64.2331 698.5 62.5607 698.5 60.4204C698.5 58.2638 699.029 56.5508 700.087 55.2812C701.153 54.0117 702.582 53.377 704.372 53.377C706.049 53.377 707.375 53.9303 708.352 55.0371C709.328 56.1357 709.816 57.5884 709.816 59.395V60.6768H700.6C700.641 62.2474 701.035 63.4396 701.784 64.2534C702.541 65.0672 703.603 65.4741 704.97 65.4741C706.411 65.4741 707.835 65.173 709.243 64.5708V66.3774C708.527 66.6867 707.847 66.9064 707.204 67.0366C706.569 67.175 705.8 67.2441 704.897 67.2441ZM704.348 55.0737C703.273 55.0737 702.415 55.4237 701.772 56.1235C701.137 56.8234 700.763 57.7918 700.649 59.0288H707.644C707.644 57.7511 707.359 56.7746 706.789 56.0991C706.219 55.4155 705.406 55.0737 704.348 55.0737ZM719.255 67.2441C717.318 67.2441 715.817 66.6501 714.75 65.4619C713.693 64.2656 713.164 62.577 713.164 60.396C713.164 58.158 713.701 56.4287 714.775 55.208C715.857 53.9873 717.395 53.377 719.389 53.377C720.032 53.377 720.675 53.4461 721.318 53.5845C721.961 53.7228 722.465 53.8856 722.832 54.0728L722.209 55.7939C721.761 55.6149 721.273 55.4684 720.744 55.3545C720.215 55.2324 719.747 55.1714 719.34 55.1714C716.622 55.1714 715.263 56.9048 715.263 60.3716C715.263 62.0155 715.593 63.2769 716.252 64.1558C716.919 65.0347 717.904 65.4741 719.206 65.4741C720.321 65.4741 721.464 65.234 722.636 64.7539V66.5483C721.741 67.0122 720.614 67.2441 719.255 67.2441ZM730.769 65.5718C731.127 65.5718 731.472 65.5474 731.806 65.4985C732.14 65.4416 732.404 65.3846 732.6 65.3276V66.8779C732.38 66.9837 732.054 67.0692 731.623 67.1343C731.2 67.2075 730.817 67.2441 730.476 67.2441C727.888 67.2441 726.594 65.881 726.594 63.1548V55.1958H724.677V54.2192L726.594 53.377L727.448 50.5205H728.62V53.6211H732.502V55.1958H728.62V63.0693C728.62 63.875 728.811 64.4935 729.194 64.9248C729.576 65.3561 730.101 65.5718 730.769 65.5718ZM753.955 67L751.501 59.1509C751.346 58.6707 751.057 57.5802 750.634 55.8794H750.537C750.211 57.3035 749.926 58.4022 749.682 59.1753L747.155 67H744.812L741.162 53.6211H743.286C744.148 56.9821 744.803 59.5415 745.251 61.2993C745.707 63.0571 745.967 64.2412 746.032 64.8516H746.13C746.219 64.3877 746.362 63.7896 746.557 63.0571C746.761 62.3166 746.936 61.7306 747.082 61.2993L749.536 53.6211H751.733L754.125 61.2993C754.581 62.6991 754.89 63.875 755.053 64.8271H755.151C755.183 64.5342 755.269 64.0825 755.407 63.4722C755.554 62.8618 756.404 59.5781 757.958 53.6211H760.058L756.359 67H753.955ZM765.139 67H763.112V53.6211H765.139V67ZM762.941 49.9956C762.941 49.5317 763.055 49.194 763.283 48.9824C763.511 48.7627 763.796 48.6528 764.138 48.6528C764.463 48.6528 764.744 48.7627 764.98 48.9824C765.216 49.2021 765.334 49.5399 765.334 49.9956C765.334 50.4513 765.216 50.7931 764.98 51.021C764.744 51.2407 764.463 51.3506 764.138 51.3506C763.796 51.3506 763.511 51.2407 763.283 51.021C763.055 50.7931 762.941 50.4513 762.941 49.9956ZM774.382 65.5718C774.74 65.5718 775.086 65.5474 775.419 65.4985C775.753 65.4416 776.018 65.3846 776.213 65.3276V66.8779C775.993 66.9837 775.668 67.0692 775.236 67.1343C774.813 67.2075 774.431 67.2441 774.089 67.2441C771.501 67.2441 770.207 65.881 770.207 63.1548V55.1958H768.291V54.2192L770.207 53.377L771.062 50.5205H772.233V53.6211H776.115V55.1958H772.233V63.0693C772.233 63.875 772.425 64.4935 772.807 64.9248C773.19 65.3561 773.715 65.5718 774.382 65.5718ZM788.679 67V58.3452C788.679 57.2547 788.431 56.4409 787.934 55.9038C787.438 55.3667 786.66 55.0981 785.603 55.0981C784.195 55.0981 783.165 55.4806 782.514 56.2456C781.871 57.0106 781.55 58.2638 781.55 60.0054V67H779.523V48.0059H781.55V53.7554C781.55 54.4471 781.517 55.0208 781.452 55.4766H781.574C781.973 54.8337 782.539 54.3291 783.271 53.9629C784.012 53.5885 784.854 53.4014 785.798 53.4014C787.434 53.4014 788.658 53.792 789.472 54.5732C790.294 55.3464 790.705 56.5793 790.705 58.272V67H788.679ZM819.677 67V58.2964C819.677 57.2303 819.449 56.4328 818.994 55.9038C818.538 55.3667 817.83 55.0981 816.87 55.0981C815.608 55.0981 814.676 55.4603 814.074 56.1846C813.472 56.9089 813.171 58.0238 813.171 59.5293V67H811.145V58.2964C811.145 57.2303 810.917 56.4328 810.461 55.9038C810.005 55.3667 809.293 55.0981 808.325 55.0981C807.055 55.0981 806.123 55.4806 805.529 56.2456C804.943 57.0024 804.65 58.2476 804.65 59.981V67H802.624V53.6211H804.272L804.602 55.4521H804.699C805.082 54.8011 805.619 54.2925 806.311 53.9263C807.01 53.5601 807.792 53.377 808.654 53.377C810.746 53.377 812.113 54.1338 812.756 55.6475H812.854C813.252 54.9476 813.83 54.3942 814.587 53.9873C815.344 53.5804 816.206 53.377 817.175 53.377C818.688 53.377 819.82 53.7676 820.568 54.5488C821.325 55.3219 821.704 56.563 821.704 58.272V67H819.677ZM832.167 67.2441C830.19 67.2441 828.627 66.6419 827.48 65.4375C826.341 64.2331 825.771 62.5607 825.771 60.4204C825.771 58.2638 826.3 56.5508 827.358 55.2812C828.424 54.0117 829.852 53.377 831.643 53.377C833.319 53.377 834.646 53.9303 835.622 55.0371C836.599 56.1357 837.087 57.5884 837.087 59.395V60.6768H827.871C827.911 62.2474 828.306 63.4396 829.055 64.2534C829.812 65.0672 830.874 65.4741 832.241 65.4741C833.681 65.4741 835.105 65.173 836.513 64.5708V66.3774C835.797 66.6867 835.118 66.9064 834.475 67.0366C833.84 67.175 833.071 67.2441 832.167 67.2441ZM831.618 55.0737C830.544 55.0737 829.685 55.4237 829.042 56.1235C828.408 56.8234 828.033 57.7918 827.919 59.0288H834.914C834.914 57.7511 834.629 56.7746 834.06 56.0991C833.49 55.4155 832.676 55.0737 831.618 55.0737ZM840.886 65.7061C840.886 65.1608 841.008 64.7498 841.252 64.4731C841.504 64.1883 841.862 64.0459 842.326 64.0459C842.798 64.0459 843.164 64.1883 843.425 64.4731C843.693 64.7498 843.828 65.1608 843.828 65.7061C843.828 66.235 843.693 66.6419 843.425 66.9268C843.156 67.2116 842.79 67.354 842.326 67.354C841.911 67.354 841.565 67.2279 841.289 66.9756C841.02 66.7152 840.886 66.292 840.886 65.7061ZM840.886 54.9272C840.886 53.8286 841.366 53.2793 842.326 53.2793C843.327 53.2793 843.828 53.8286 843.828 54.9272C843.828 55.4562 843.693 55.8631 843.425 56.1479C843.156 56.4328 842.79 56.5752 842.326 56.5752C841.911 56.5752 841.565 56.4491 841.289 56.1968C841.02 55.9364 840.886 55.5132 840.886 54.9272Z" fill="white"/>
<path d="M651.306 239.896C651.201 240.908 650.839 241.701 650.219 242.275C649.599 242.85 648.74 243.137 647.642 243.137C646.89 243.137 646.233 242.95 645.673 242.576C645.112 242.202 644.677 241.678 644.367 241.004C644.057 240.329 643.902 239.546 643.902 238.652V237.401C643.902 236.504 644.057 235.72 644.367 235.05C644.677 234.375 645.117 233.851 645.687 233.478C646.256 233.099 646.928 232.91 647.703 232.91C648.765 232.91 649.606 233.197 650.226 233.771C650.845 234.341 651.205 235.136 651.306 236.157H650.465C650.365 235.351 650.093 234.729 649.651 234.291C649.209 233.849 648.56 233.628 647.703 233.628C647.088 233.628 646.559 233.785 646.117 234.1C645.675 234.41 645.336 234.847 645.099 235.412C644.862 235.977 644.743 236.636 644.743 237.388V238.652C644.743 239.382 644.857 240.031 645.085 240.601C645.313 241.166 645.641 241.612 646.069 241.94C646.502 242.264 647.026 242.426 647.642 242.426C648.526 242.426 649.189 242.214 649.631 241.79C650.077 241.366 650.355 240.735 650.465 239.896H651.306ZM652.714 239.192C652.714 238.472 652.851 237.832 653.124 237.271C653.397 236.711 653.78 236.271 654.272 235.952C654.765 235.629 655.343 235.467 656.009 235.467C656.679 235.467 657.26 235.629 657.752 235.952C658.249 236.271 658.634 236.711 658.907 237.271C659.181 237.832 659.317 238.472 659.317 239.192V239.418C659.317 240.133 659.181 240.771 658.907 241.332C658.638 241.893 658.256 242.335 657.759 242.658C657.267 242.977 656.688 243.137 656.022 243.137C655.353 243.137 654.769 242.977 654.272 242.658C653.78 242.335 653.397 241.893 653.124 241.332C652.851 240.771 652.714 240.133 652.714 239.418V239.192ZM653.534 239.418C653.534 239.956 653.63 240.455 653.821 240.915C654.013 241.375 654.293 241.747 654.662 242.029C655.031 242.307 655.485 242.446 656.022 242.446C656.556 242.446 657.005 242.307 657.369 242.029C657.738 241.747 658.019 241.375 658.21 240.915C658.401 240.455 658.497 239.956 658.497 239.418V239.192C658.497 238.659 658.401 238.162 658.21 237.702C658.019 237.242 657.738 236.87 657.369 236.588C657 236.301 656.547 236.157 656.009 236.157C655.476 236.157 655.024 236.301 654.655 236.588C654.286 236.87 654.006 237.242 653.814 237.702C653.628 238.162 653.534 238.659 653.534 239.192V239.418ZM661.819 245.844H660.999V235.604H661.765L661.806 236.649C662.056 236.28 662.373 235.991 662.756 235.781C663.139 235.572 663.594 235.467 664.123 235.467C665.025 235.467 665.723 235.809 666.215 236.492C666.712 237.171 666.96 238.085 666.96 239.233V239.377C666.96 240.115 666.848 240.767 666.625 241.332C666.406 241.897 666.085 242.339 665.661 242.658C665.242 242.977 664.734 243.137 664.137 243.137C663.613 243.137 663.157 243.041 662.77 242.85C662.387 242.658 662.07 242.398 661.819 242.07V245.844ZM666.133 239.233C666.133 238.659 666.053 238.142 665.894 237.682C665.739 237.221 665.499 236.857 665.176 236.588C664.852 236.314 664.44 236.178 663.938 236.178C663.351 236.178 662.89 236.321 662.558 236.608C662.225 236.891 661.979 237.217 661.819 237.586V241.147C662.002 241.521 662.264 241.831 662.605 242.077C662.952 242.323 663.401 242.446 663.952 242.446C664.449 242.446 664.857 242.31 665.176 242.036C665.499 241.763 665.739 241.396 665.894 240.936C666.053 240.471 666.133 239.951 666.133 239.377V239.233ZM673.276 235.604H674.158L671.027 244.189C670.945 244.413 670.829 244.663 670.679 244.941C670.528 245.224 670.316 245.468 670.043 245.673C669.77 245.882 669.407 245.987 668.956 245.987C668.869 245.987 668.758 245.976 668.621 245.953C668.489 245.935 668.391 245.917 668.327 245.898V245.215C668.377 245.229 668.45 245.24 668.546 245.249C668.642 245.258 668.708 245.263 668.744 245.263C669.186 245.263 669.526 245.149 669.763 244.921C670.004 244.698 670.202 244.365 670.357 243.923L670.72 242.938L667.931 235.604H668.819L671.123 241.817L673.276 235.604ZM676.25 243H675.43V235.604H676.229L676.25 236.766C676.451 236.365 676.722 236.048 677.063 235.815C677.41 235.583 677.831 235.467 678.328 235.467C678.428 235.467 678.531 235.476 678.636 235.494C678.741 235.512 678.818 235.531 678.868 235.549L678.848 236.294C678.661 236.262 678.479 236.246 678.301 236.246C677.749 236.246 677.303 236.401 676.961 236.711C676.624 237.021 676.387 237.417 676.25 237.9V243ZM680.105 233.464C680.105 233.309 680.153 233.179 680.249 233.074C680.349 232.965 680.486 232.91 680.659 232.91C680.837 232.91 680.976 232.965 681.076 233.074C681.176 233.179 681.227 233.309 681.227 233.464C681.227 233.614 681.176 233.742 681.076 233.847C680.976 233.951 680.837 234.004 680.659 234.004C680.486 234.004 680.349 233.951 680.249 233.847C680.153 233.742 680.105 233.614 680.105 233.464ZM681.062 243H680.249V235.604H681.062V243ZM682.97 239.233C682.97 238.085 683.223 237.171 683.729 236.492C684.234 235.809 684.934 235.467 685.827 235.467C686.356 235.467 686.809 235.574 687.188 235.788C687.566 235.998 687.878 236.289 688.124 236.663L688.158 235.604H688.924V242.87C688.924 243.836 688.653 244.59 688.11 245.133C687.573 245.68 686.855 245.953 685.957 245.953C685.497 245.953 685.027 245.846 684.549 245.632C684.07 245.422 683.681 245.108 683.38 244.688L683.838 244.189C684.139 244.559 684.458 244.83 684.795 245.003C685.137 245.176 685.508 245.263 685.909 245.263C686.606 245.263 687.146 245.053 687.529 244.634C687.912 244.219 688.104 243.64 688.104 242.897V242.036C687.857 242.378 687.543 242.647 687.16 242.843C686.782 243.039 686.333 243.137 685.813 243.137C685.226 243.137 684.717 242.977 684.289 242.658C683.865 242.339 683.539 241.897 683.312 241.332C683.084 240.767 682.97 240.115 682.97 239.377V239.233ZM683.79 239.377C683.79 239.951 683.868 240.468 684.022 240.929C684.177 241.389 684.414 241.754 684.733 242.022C685.057 242.291 685.467 242.426 685.964 242.426C686.524 242.426 686.976 242.296 687.317 242.036C687.664 241.776 687.926 241.453 688.104 241.065V237.634C687.949 237.256 687.705 236.918 687.372 236.622C687.044 236.326 686.579 236.178 685.978 236.178C685.476 236.178 685.064 236.314 684.74 236.588C684.417 236.857 684.177 237.221 684.022 237.682C683.868 238.142 683.79 238.659 683.79 239.233V239.377ZM691.891 243H691.07V232.5H691.891V236.841C692.146 236.426 692.479 236.093 692.889 235.843C693.299 235.592 693.766 235.467 694.29 235.467C695.028 235.467 695.607 235.676 696.026 236.096C696.446 236.515 696.655 237.212 696.655 238.188V243H695.835V238.181C695.835 237.415 695.678 236.889 695.363 236.602C695.053 236.314 694.632 236.171 694.099 236.171C693.711 236.171 693.372 236.255 693.08 236.424C692.788 236.592 692.542 236.811 692.342 237.08C692.146 237.344 691.995 237.625 691.891 237.921V243ZM701.577 236.273H700.039V241.202C700.039 241.544 700.085 241.804 700.176 241.981C700.267 242.155 700.385 242.271 700.531 242.33C700.677 242.389 700.837 242.419 701.01 242.419C701.133 242.419 701.249 242.412 701.358 242.398C701.472 242.38 701.575 242.364 701.666 242.351L701.7 243.027C701.481 243.1 701.192 243.137 700.832 243.137C700.358 243.137 699.971 243 699.67 242.727C699.369 242.449 699.219 241.938 699.219 241.195V236.273H697.865V235.604H699.219V233.703H700.039V235.604H701.577V236.273ZM706.362 238.017C706.362 237.292 706.488 236.62 706.738 236C706.993 235.38 707.342 234.84 707.784 234.38C708.231 233.915 708.746 233.555 709.329 233.3C709.917 233.04 710.546 232.91 711.216 232.91C711.886 232.91 712.512 233.04 713.096 233.3C713.684 233.555 714.199 233.915 714.641 234.38C715.087 234.84 715.436 235.38 715.687 236C715.942 236.62 716.069 237.292 716.069 238.017C716.069 238.741 715.942 239.413 715.687 240.033C715.436 240.653 715.087 241.198 714.641 241.667C714.199 242.132 713.684 242.494 713.096 242.754C712.512 243.014 711.886 243.144 711.216 243.144C710.546 243.144 709.917 243.014 709.329 242.754C708.746 242.494 708.231 242.132 707.784 241.667C707.342 241.198 706.993 240.653 706.738 240.033C706.488 239.413 706.362 238.741 706.362 238.017ZM706.95 238.017C706.95 238.655 707.06 239.249 707.278 239.801C707.502 240.348 707.809 240.828 708.201 241.243C708.593 241.653 709.047 241.975 709.562 242.207C710.076 242.435 710.628 242.549 711.216 242.549C711.804 242.549 712.355 242.435 712.87 242.207C713.385 241.975 713.839 241.653 714.23 241.243C714.622 240.828 714.928 240.348 715.146 239.801C715.37 239.249 715.481 238.655 715.481 238.017C715.481 237.379 715.37 236.786 715.146 236.239C714.928 235.692 714.622 235.214 714.23 234.804C713.839 234.394 713.385 234.075 712.87 233.847C712.355 233.619 711.804 233.505 711.216 233.505C710.628 233.505 710.076 233.619 709.562 233.847C709.047 234.075 708.593 234.394 708.201 234.804C707.809 235.214 707.502 235.692 707.278 236.239C707.06 236.786 706.95 237.379 706.95 238.017ZM713.301 238.851C713.301 239.566 713.105 240.104 712.713 240.464C712.326 240.819 711.804 240.997 711.147 240.997C710.459 240.997 709.908 240.753 709.493 240.266C709.078 239.773 708.871 239.135 708.871 238.352V237.688C708.871 236.905 709.078 236.269 709.493 235.781C709.908 235.289 710.459 235.043 711.147 235.043C711.804 235.043 712.328 235.221 712.72 235.576C713.112 235.932 713.308 236.467 713.308 237.183H712.631C712.631 236.659 712.503 236.273 712.248 236.027C711.993 235.781 711.626 235.658 711.147 235.658C710.632 235.658 710.236 235.852 709.958 236.239C709.685 236.627 709.548 237.107 709.548 237.682V238.352C709.548 238.935 709.685 239.418 709.958 239.801C710.236 240.184 710.632 240.375 711.147 240.375C711.626 240.375 711.991 240.257 712.241 240.02C712.496 239.778 712.624 239.388 712.624 238.851H713.301ZM724.006 243H717.765V242.364L721.025 238.673C721.636 237.98 722.064 237.408 722.311 236.957C722.561 236.501 722.687 236.066 722.687 235.651C722.687 235.05 722.509 234.558 722.153 234.175C721.798 233.792 721.283 233.601 720.608 233.601C719.916 233.601 719.369 233.819 718.968 234.257C718.567 234.694 718.366 235.246 718.366 235.911H717.546C717.546 235.364 717.667 234.863 717.908 234.407C718.154 233.951 718.505 233.589 718.961 233.32C719.421 233.047 719.97 232.91 720.608 232.91C721.502 232.91 722.208 233.147 722.728 233.621C723.247 234.09 723.507 234.742 723.507 235.576C723.507 235.977 723.413 236.381 723.227 236.786C723.044 237.192 722.803 237.595 722.502 237.996C722.206 238.397 721.889 238.789 721.552 239.172L718.77 242.31H724.006V243ZM731.532 238.851C731.532 240.309 731.266 241.389 730.732 242.091C730.199 242.788 729.45 243.137 728.483 243.137C727.531 243.137 726.781 242.788 726.234 242.091C725.688 241.389 725.414 240.309 725.414 238.851V237.169C725.414 235.711 725.683 234.635 726.221 233.942C726.763 233.25 727.513 232.903 728.47 232.903C729.431 232.903 730.181 233.25 730.719 233.942C731.261 234.635 731.532 235.711 731.532 237.169V238.851ZM730.719 237.066C730.719 235.932 730.53 235.07 730.151 234.482C729.778 233.895 729.217 233.601 728.47 233.601C727.731 233.601 727.173 233.895 726.795 234.482C726.421 235.07 726.234 235.932 726.234 237.066V238.939C726.234 240.056 726.424 240.92 726.802 241.53C727.185 242.141 727.745 242.446 728.483 242.446C729.235 242.446 729.796 242.141 730.165 241.53C730.534 240.92 730.719 240.056 730.719 238.939V237.066ZM739.537 243H733.296V242.364L736.557 238.673C737.167 237.98 737.596 237.408 737.842 236.957C738.092 236.501 738.218 236.066 738.218 235.651C738.218 235.05 738.04 234.558 737.685 234.175C737.329 233.792 736.814 233.601 736.14 233.601C735.447 233.601 734.9 233.819 734.499 234.257C734.098 234.694 733.897 235.246 733.897 235.911H733.077C733.077 235.364 733.198 234.863 733.439 234.407C733.686 233.951 734.036 233.589 734.492 233.32C734.952 233.047 735.502 232.91 736.14 232.91C737.033 232.91 737.739 233.147 738.259 233.621C738.778 234.09 739.038 234.742 739.038 235.576C739.038 235.977 738.945 236.381 738.758 236.786C738.576 237.192 738.334 237.595 738.033 237.996C737.737 238.397 737.42 238.789 737.083 239.172L734.301 242.31H739.537V243ZM744.869 243H744.049V234.031L741.349 235.036V234.264L744.732 233.006H744.869V243ZM752.396 243H751.521L755.28 233.047H756.08L759.847 243H758.972L757.946 240.211H753.421L752.396 243ZM753.688 239.493H757.68L755.684 234.072L753.688 239.493ZM762.041 243H761.228V232.5H762.041V243ZM765.186 243H764.372V232.5H765.186V243ZM771.652 243H770.832V235.604H771.632L771.652 236.766C771.853 236.365 772.124 236.048 772.466 235.815C772.812 235.583 773.234 235.467 773.73 235.467C773.831 235.467 773.933 235.476 774.038 235.494C774.143 235.512 774.22 235.531 774.271 235.549L774.25 236.294C774.063 236.262 773.881 236.246 773.703 236.246C773.152 236.246 772.705 236.401 772.363 236.711C772.026 237.021 771.789 237.417 771.652 237.9V243ZM775.508 233.464C775.508 233.309 775.556 233.179 775.651 233.074C775.752 232.965 775.888 232.91 776.062 232.91C776.239 232.91 776.378 232.965 776.479 233.074C776.579 233.179 776.629 233.309 776.629 233.464C776.629 233.614 776.579 233.742 776.479 233.847C776.378 233.951 776.239 234.004 776.062 234.004C775.888 234.004 775.752 233.951 775.651 233.847C775.556 233.742 775.508 233.614 775.508 233.464ZM776.465 243H775.651V235.604H776.465V243ZM778.372 239.233C778.372 238.085 778.625 237.171 779.131 236.492C779.637 235.809 780.336 235.467 781.229 235.467C781.758 235.467 782.212 235.574 782.59 235.788C782.968 235.998 783.28 236.289 783.526 236.663L783.561 235.604H784.326V242.87C784.326 243.836 784.055 244.59 783.513 245.133C782.975 245.68 782.257 245.953 781.359 245.953C780.899 245.953 780.43 245.846 779.951 245.632C779.473 245.422 779.083 245.108 778.782 244.688L779.24 244.189C779.541 244.559 779.86 244.83 780.197 245.003C780.539 245.176 780.91 245.263 781.312 245.263C782.009 245.263 782.549 245.053 782.932 244.634C783.314 244.219 783.506 243.64 783.506 242.897V242.036C783.26 242.378 782.945 242.647 782.562 242.843C782.184 243.039 781.735 243.137 781.216 243.137C780.628 243.137 780.12 242.977 779.691 242.658C779.268 242.339 778.942 241.897 778.714 241.332C778.486 240.767 778.372 240.115 778.372 239.377V239.233ZM779.192 239.377C779.192 239.951 779.27 240.468 779.425 240.929C779.58 241.389 779.817 241.754 780.136 242.022C780.459 242.291 780.869 242.426 781.366 242.426C781.927 242.426 782.378 242.296 782.72 242.036C783.066 241.776 783.328 241.453 783.506 241.065V237.634C783.351 237.256 783.107 236.918 782.774 236.622C782.446 236.326 781.981 236.178 781.38 236.178C780.879 236.178 780.466 236.314 780.143 236.588C779.819 236.857 779.58 237.221 779.425 237.682C779.27 238.142 779.192 238.659 779.192 239.233V239.377ZM787.293 243H786.473V232.5H787.293V236.841C787.548 236.426 787.881 236.093 788.291 235.843C788.701 235.592 789.168 235.467 789.692 235.467C790.431 235.467 791.009 235.676 791.429 236.096C791.848 236.515 792.058 237.212 792.058 238.188V243H791.237V238.181C791.237 237.415 791.08 236.889 790.766 236.602C790.456 236.314 790.034 236.171 789.501 236.171C789.114 236.171 788.774 236.255 788.482 236.424C788.191 236.592 787.945 236.811 787.744 237.08C787.548 237.344 787.398 237.625 787.293 237.921V243ZM796.979 236.273H795.441V241.202C795.441 241.544 795.487 241.804 795.578 241.981C795.669 242.155 795.788 242.271 795.934 242.33C796.079 242.389 796.239 242.419 796.412 242.419C796.535 242.419 796.651 242.412 796.761 242.398C796.875 242.38 796.977 242.364 797.068 242.351L797.103 243.027C796.884 243.1 796.594 243.137 796.234 243.137C795.76 243.137 795.373 243 795.072 242.727C794.771 242.449 794.621 241.938 794.621 241.195V236.273H793.268V235.604H794.621V233.703H795.441V235.604H796.979V236.273ZM803.118 241.113C803.118 240.913 803.066 240.715 802.961 240.519C802.861 240.323 802.669 240.143 802.387 239.979C802.104 239.814 801.687 239.673 801.136 239.555C800.315 239.382 799.68 239.145 799.229 238.844C798.782 238.538 798.559 238.083 798.559 237.477C798.559 237.112 798.663 236.777 798.873 236.472C799.087 236.166 799.388 235.923 799.775 235.74C800.167 235.558 800.63 235.467 801.163 235.467C802.02 235.467 802.69 235.676 803.173 236.096C803.656 236.515 803.897 237.041 803.897 237.675H803.07C803.07 237.292 802.906 236.943 802.578 236.629C802.25 236.314 801.778 236.157 801.163 236.157C800.739 236.157 800.395 236.223 800.131 236.355C799.867 236.483 799.673 236.647 799.55 236.848C799.431 237.044 799.372 237.244 799.372 237.449C799.372 237.668 799.422 237.864 799.522 238.037C799.623 238.206 799.814 238.358 800.097 238.495C800.379 238.632 800.796 238.764 801.348 238.892C802.241 239.097 802.895 239.366 803.31 239.698C803.729 240.026 803.938 240.484 803.938 241.072C803.938 241.683 803.69 242.18 803.193 242.562C802.701 242.945 802.038 243.137 801.204 243.137C800.58 243.137 800.051 243.034 799.618 242.829C799.19 242.619 798.864 242.346 798.641 242.009C798.422 241.672 798.312 241.309 798.312 240.922H799.126C799.153 241.309 799.274 241.615 799.488 241.838C799.702 242.057 799.965 242.214 800.274 242.31C800.584 242.401 800.894 242.446 801.204 242.446C801.828 242.446 802.302 242.312 802.626 242.043C802.954 241.77 803.118 241.46 803.118 241.113ZM810.016 243H809.195V235.604H809.995L810.016 236.766C810.216 236.365 810.487 236.048 810.829 235.815C811.175 235.583 811.597 235.467 812.094 235.467C812.194 235.467 812.297 235.476 812.401 235.494C812.506 235.512 812.584 235.531 812.634 235.549L812.613 236.294C812.426 236.262 812.244 236.246 812.066 236.246C811.515 236.246 811.068 236.401 810.727 236.711C810.389 237.021 810.152 237.417 810.016 237.9V243ZM816.776 243.137C816.134 243.137 815.562 242.982 815.061 242.672C814.564 242.357 814.172 241.929 813.885 241.387C813.602 240.84 813.461 240.213 813.461 239.507V239.213C813.461 238.452 813.607 237.791 813.898 237.23C814.195 236.67 814.582 236.237 815.061 235.932C815.544 235.622 816.065 235.467 816.626 235.467C817.255 235.467 817.786 235.613 818.219 235.904C818.656 236.191 818.989 236.59 819.217 237.101C819.445 237.611 819.559 238.194 819.559 238.851V239.35H814.281V239.507C814.281 240.054 814.386 240.55 814.596 240.997C814.81 241.439 815.106 241.792 815.484 242.057C815.867 242.316 816.309 242.446 816.811 242.446C817.248 242.446 817.635 242.367 817.973 242.207C818.31 242.043 818.613 241.785 818.882 241.435L819.401 241.824C819.155 242.184 818.823 242.494 818.403 242.754C817.984 243.009 817.442 243.137 816.776 243.137ZM816.626 236.157C816.006 236.157 815.487 236.387 815.067 236.848C814.653 237.303 814.4 237.907 814.309 238.659H818.738V238.563C818.729 238.153 818.645 237.766 818.485 237.401C818.326 237.032 818.091 236.734 817.781 236.506C817.476 236.273 817.091 236.157 816.626 236.157ZM825.595 241.113C825.595 240.913 825.542 240.715 825.438 240.519C825.337 240.323 825.146 240.143 824.863 239.979C824.581 239.814 824.164 239.673 823.612 239.555C822.792 239.382 822.156 239.145 821.705 238.844C821.258 238.538 821.035 238.083 821.035 237.477C821.035 237.112 821.14 236.777 821.35 236.472C821.564 236.166 821.865 235.923 822.252 235.74C822.644 235.558 823.106 235.467 823.64 235.467C824.496 235.467 825.166 235.676 825.649 236.096C826.132 236.515 826.374 237.041 826.374 237.675H825.547C825.547 237.292 825.383 236.943 825.055 236.629C824.727 236.314 824.255 236.157 823.64 236.157C823.216 236.157 822.872 236.223 822.607 236.355C822.343 236.483 822.149 236.647 822.026 236.848C821.908 237.044 821.849 237.244 821.849 237.449C821.849 237.668 821.899 237.864 821.999 238.037C822.099 238.206 822.291 238.358 822.573 238.495C822.856 238.632 823.273 238.764 823.824 238.892C824.717 239.097 825.371 239.366 825.786 239.698C826.205 240.026 826.415 240.484 826.415 241.072C826.415 241.683 826.167 242.18 825.67 242.562C825.178 242.945 824.515 243.137 823.681 243.137C823.056 243.137 822.528 243.034 822.095 242.829C821.666 242.619 821.34 242.346 821.117 242.009C820.898 241.672 820.789 241.309 820.789 240.922H821.603C821.63 241.309 821.751 241.615 821.965 241.838C822.179 242.057 822.441 242.214 822.751 242.31C823.061 242.401 823.371 242.446 823.681 242.446C824.305 242.446 824.779 242.312 825.103 242.043C825.431 241.77 825.595 241.46 825.595 241.113ZM831.118 243.137C830.476 243.137 829.904 242.982 829.402 242.672C828.906 242.357 828.514 241.929 828.227 241.387C827.944 240.84 827.803 240.213 827.803 239.507V239.213C827.803 238.452 827.949 237.791 828.24 237.23C828.536 236.67 828.924 236.237 829.402 235.932C829.885 235.622 830.407 235.467 830.968 235.467C831.597 235.467 832.128 235.613 832.561 235.904C832.998 236.191 833.331 236.59 833.559 237.101C833.786 237.611 833.9 238.194 833.9 238.851V239.35H828.623V239.507C828.623 240.054 828.728 240.55 828.938 240.997C829.152 241.439 829.448 241.792 829.826 242.057C830.209 242.316 830.651 242.446 831.152 242.446C831.59 242.446 831.977 242.367 832.314 242.207C832.652 242.043 832.955 241.785 833.224 241.435L833.743 241.824C833.497 242.184 833.164 242.494 832.745 242.754C832.326 243.009 831.784 243.137 831.118 243.137ZM830.968 236.157C830.348 236.157 829.828 236.387 829.409 236.848C828.994 237.303 828.742 237.907 828.65 238.659H833.08V238.563C833.071 238.153 832.987 237.766 832.827 237.401C832.668 237.032 832.433 236.734 832.123 236.506C831.818 236.273 831.433 236.157 830.968 236.157ZM836.32 243H835.5V235.604H836.3L836.32 236.766C836.521 236.365 836.792 236.048 837.134 235.815C837.48 235.583 837.902 235.467 838.398 235.467C838.499 235.467 838.601 235.476 838.706 235.494C838.811 235.512 838.888 235.531 838.938 235.549L838.918 236.294C838.731 236.262 838.549 236.246 838.371 236.246C837.82 236.246 837.373 236.401 837.031 236.711C836.694 237.021 836.457 237.417 836.32 237.9V243ZM844.893 235.604H845.74L842.972 243H842.309L839.533 235.604H840.381L842.65 241.872L844.893 235.604ZM849.944 243.137C849.302 243.137 848.73 242.982 848.229 242.672C847.732 242.357 847.34 241.929 847.053 241.387C846.77 240.84 846.629 240.213 846.629 239.507V239.213C846.629 238.452 846.775 237.791 847.066 237.23C847.363 236.67 847.75 236.237 848.229 235.932C848.712 235.622 849.233 235.467 849.794 235.467C850.423 235.467 850.954 235.613 851.387 235.904C851.824 236.191 852.157 236.59 852.385 237.101C852.613 237.611 852.727 238.194 852.727 238.851V239.35H847.449V239.507C847.449 240.054 847.554 240.55 847.764 240.997C847.978 241.439 848.274 241.792 848.652 242.057C849.035 242.316 849.477 242.446 849.979 242.446C850.416 242.446 850.803 242.367 851.141 242.207C851.478 242.043 851.781 241.785 852.05 241.435L852.569 241.824C852.323 242.184 851.991 242.494 851.571 242.754C851.152 243.009 850.61 243.137 849.944 243.137ZM849.794 236.157C849.174 236.157 848.655 236.387 848.235 236.848C847.821 237.303 847.568 237.907 847.477 238.659H851.906V238.563C851.897 238.153 851.813 237.766 851.653 237.401C851.494 237.032 851.259 236.734 850.949 236.506C850.644 236.273 850.259 236.157 849.794 236.157ZM854.005 239.233C854.005 238.468 854.119 237.805 854.347 237.244C854.579 236.679 854.91 236.242 855.338 235.932C855.766 235.622 856.274 235.467 856.862 235.467C857.382 235.467 857.828 235.569 858.202 235.774C858.58 235.979 858.893 236.267 859.139 236.636V232.5H859.959V243H859.193L859.152 242.009C858.911 242.36 858.599 242.635 858.216 242.836C857.833 243.036 857.377 243.137 856.849 243.137C856.265 243.137 855.759 242.977 855.331 242.658C854.907 242.339 854.579 241.897 854.347 241.332C854.119 240.767 854.005 240.115 854.005 239.377V239.233ZM854.825 239.377C854.825 239.951 854.903 240.468 855.058 240.929C855.213 241.389 855.45 241.754 855.769 242.022C856.092 242.291 856.502 242.426 856.999 242.426C857.555 242.426 858.004 242.3 858.346 242.05C858.692 241.795 858.956 241.476 859.139 241.093V237.6C858.979 237.226 858.733 236.896 858.4 236.608C858.068 236.321 857.605 236.178 857.013 236.178C856.511 236.178 856.099 236.314 855.775 236.588C855.452 236.857 855.213 237.221 855.058 237.682C854.903 238.142 854.825 238.659 854.825 239.233V239.377ZM862.037 242.501C862.037 242.341 862.087 242.207 862.188 242.098C862.292 241.988 862.434 241.934 862.611 241.934C862.794 241.934 862.937 241.988 863.042 242.098C863.147 242.207 863.199 242.341 863.199 242.501C863.199 242.66 863.147 242.793 863.042 242.897C862.937 243.002 862.794 243.055 862.611 243.055C862.434 243.055 862.292 243.002 862.188 242.897C862.087 242.793 862.037 242.66 862.037 242.501Z" fill="#EEEEEE"/>
</svg>
