<svg width="378" id="icon" height="50" viewBox="0 0 378 50" fill="none" xmlns="http://www.w3.org/2000/svg">
<path d="M240.653 50C238.491 50 236.266 49.7861 234.027 49.3573C230.084 48.6013 226.092 46.0811 224.962 45.3265L222 43.3475L225.207 42.0587C228.713 40.6502 230.846 39.7763 233.486 38.4078C230.843 36.8436 228.805 34.0298 227.825 30.3924L227.078 27.6248L227.69 27.739C227.11 27.0244 226.652 26.2992 226.297 25.6397C225.034 23.2957 224.365 20.4316 224.507 17.9771L224.648 15.5614L225.831 16.1216C225.332 14.9694 224.971 13.7389 224.759 12.4493C224.242 9.30407 224.675 5.96265 225.978 3.04072L227.009 0.727967L228.388 2.75174C232.749 9.15305 238.273 12.9503 244.829 14.0619C244.561 11.8065 244.762 9.62987 245.426 7.6788C246.199 5.40707 247.575 3.48071 249.403 2.1076C251.433 0.583013 253.895 -0.155744 256.335 0.0274305C258.924 0.221791 261.275 1.40706 263.142 3.4574C264.054 3.16796 264.725 2.85894 265.633 2.44132C266.18 2.1901 266.799 1.90485 267.574 1.57859L270.431 0.376068L268.568 6.87619C268.691 6.86361 268.817 6.85289 268.95 6.8459L272 6.67717L270.197 9.68766C270.094 9.86012 270.067 9.90906 270.031 9.97664C269.886 10.2442 269.705 10.577 267.23 14.6143C266.611 15.6252 266.301 16.9419 266.359 18.3225C266.578 23.5688 266.051 28.3155 264.792 32.4302C263.601 36.323 261.756 39.663 259.307 42.3575C256.278 45.691 252.415 47.9734 247.825 49.1405C245.574 49.7129 243.156 50 240.653 50V50Z" fill="white"/>
<path d="M42.6758 0H7.32422C3.28598 0 0 3.28598 0 7.32422V42.6758C0 46.714 3.28598 50 7.32422 50H42.6758C46.714 50 50 46.714 50 42.6758V7.32422C50 3.28598 46.714 0 42.6758 0ZM17.6758 39.6484H11.8164V19.1406H17.6758V39.6484ZM17.6758 16.2109H11.8164V10.3516H17.6758V16.2109ZM38.1836 39.6484H32.3242V27.9297C32.3242 26.3145 31.0097 25 29.3945 25C27.7794 25 26.4648 26.3145 26.4648 27.9297V39.6484H20.6055V19.1406H26.4648V20.245C27.9999 19.7678 28.997 19.1406 30.8594 19.1406C34.8331 19.1448 38.1836 22.7097 38.1836 26.9226V39.6484Z" fill="white"/>
<path d="M153.676 0H118.324C114.286 0 111 3.28598 111 7.32422V42.6758C111 46.714 114.286 50 118.324 50H153.676C157.714 50 161 46.714 161 42.6758V7.32422C161 3.28598 157.714 0 153.676 0ZM136.098 38.0859C128.828 38.0859 122.914 32.172 122.914 24.9023C122.914 17.6327 128.828 11.7188 136.098 11.7188C143.367 11.7188 149.281 17.6327 149.281 24.9023C149.281 32.172 143.367 38.0859 136.098 38.0859ZM150.746 14.6484C148.323 14.6484 146.352 12.677 146.352 10.2539C146.352 7.83081 148.323 5.85938 150.746 5.85938C153.169 5.85938 155.141 7.83081 155.141 10.2539C155.141 12.677 153.169 14.6484 150.746 14.6484Z" fill="white"/>
<path d="M150.746 8.78906C149.938 8.78906 149.281 9.44557 149.281 10.2539C149.281 11.0622 149.938 11.7188 150.746 11.7188C151.554 11.7188 152.211 11.0622 152.211 10.2539C152.211 9.44557 151.554 8.78906 150.746 8.78906Z" fill="white"/>
<path d="M136.098 14.6484C130.444 14.6484 125.844 19.249 125.844 24.9023C125.844 30.5557 130.444 35.1562 136.098 35.1562C141.751 35.1562 146.352 30.5557 146.352 24.9023C146.352 19.249 141.751 14.6484 136.098 14.6484Z" fill="white"/>
<path d="M353 0C339.269 0 328 11.2686 328 25C328 36.7176 336.222 47.3618 347.141 50V41.729C346.059 41.9659 345.063 41.9727 343.962 41.6481C342.484 41.2121 341.284 40.2279 340.393 38.7272C339.825 37.7689 338.818 36.7298 337.768 36.8061L337.51 33.8879C339.781 33.6933 341.746 35.2715 342.912 37.2307C343.43 38.102 344.026 38.6127 344.792 38.8386C345.531 39.0564 346.325 38.9519 347.251 38.625C347.483 36.7722 348.332 36.0786 348.973 35.1021V35.1006C342.462 34.1293 339.866 30.6747 338.836 27.948C337.472 24.3275 338.204 19.8044 340.617 16.946C340.664 16.8903 340.749 16.7446 340.716 16.6428C339.61 13.2999 340.958 10.5347 341.008 10.2413C342.285 10.619 342.492 9.86137 346.555 12.3299L347.258 12.7518C347.551 12.9269 347.459 12.8269 347.753 12.8048C349.449 12.344 351.238 12.0895 353 12.0667C354.775 12.0895 356.552 12.344 358.318 12.8235L358.546 12.8464C358.526 12.8433 358.608 12.8319 358.745 12.7502C363.82 9.67598 363.638 10.6808 364.999 10.2383C365.048 10.532 366.379 13.3423 365.284 16.6428C365.136 17.0975 369.684 21.262 367.163 27.9469C366.133 30.6747 363.538 34.1293 357.027 35.1006V35.1021C357.861 36.3743 358.864 37.051 358.859 39.6755V50C369.778 47.3618 378 36.7176 378 25C378 11.2686 366.731 0 353 0V0Z" fill="white"/>
</svg>
